<?xml version="1.0" encoding="UTF-8" standalone="no"?>
<svg width="25px" height="25px" viewBox="0 0 25 25" version="1.1" xmlns="http://www.w3.org/2000/svg" xmlns:xlink="http://www.w3.org/1999/xlink">
    <!-- Generator: Sketch 3.8.3 (29802) - http://www.bohemiancoding.com/sketch -->
    <title>facebook</title>
    <desc>Created with Sketch.</desc>
    <defs></defs>
    <g id="Home" stroke="none" stroke-width="1" fill="none" fill-rule="evenodd">
        <g transform="translate(-1170.000000, -7534.000000)" id="FOOTER" fill="#4467B0">
            <g transform="translate(0.000000, 7192.000000)">
                <g id="Group-21" transform="translate(1170.000000, 342.000000)">
                    <g id="facebook">
                        <path d="M23.4507308,0 L1.36978205,0 C0.61275641,0 0,0.6171875 0,1.3796875 L0,23.6203125 C0,24.3828125 0.61275641,25 1.36978205,25 L13.2572564,25 L13.2572564,15.31875 L10.0212821,15.31875 L10.0212821,11.546875 L13.2572564,11.546875 L13.2572564,8.7609375 C13.2572564,5.5328125 15.2149744,3.7765625 18.0755385,3.7765625 C19.4453205,3.7765625 20.6227436,3.8765625 20.9655769,3.9234375 L20.9655769,7.2984375 L18.9799359,7.2984375 C17.4286538,7.2984375 17.1261538,8.0421875 17.1261538,9.1359375 L17.1261538,11.5421875 L20.8337179,11.5421875 L20.3528205,15.3171875 L17.1261538,15.3171875 L17.1261538,25 L23.4507308,25 C24.2077564,25 24.8205128,24.3828125 24.8205128,23.6203125 L24.8205128,1.3796875 C24.8205128,0.6171875 24.2077564,0 23.4507308,0" id="Shape"></path>
                    </g>
                </g>
            </g>
        </g>
    </g>
</svg>