<?xml version="1.0" encoding="UTF-8" standalone="no"?>
<svg width="25px" height="19px" viewBox="0 0 25 19" version="1.1" xmlns="http://www.w3.org/2000/svg" xmlns:xlink="http://www.w3.org/1999/xlink">
    <!-- Generator: Sketch 3.8.3 (29802) - http://www.bohemiancoding.com/sketch -->
    <title>youtube</title>
    <desc>Created with Sketch.</desc>
    <defs></defs>
    <g id="Home" stroke="none" stroke-width="1" fill="none" fill-rule="evenodd">
        <g transform="translate(-1266.000000, -7537.000000)" id="FOOTER" fill="#CD201F">
            <g transform="translate(0.000000, 7192.000000)">
                <g id="Group-21" transform="translate(1170.000000, 342.000000)">
                    <g id="youtube" transform="translate(96.000000, 3.000000)">
                        <path d="M0,8.3515625 C0,6.3296875 0.248205128,4.3046875 0.248205128,4.3046875 C0.248205128,4.3046875 0.490205128,2.5859375 1.23482051,1.825 C2.178,0.8296875 3.41902564,0.8609375 3.97128205,0.75625 C5.95692308,0.5625 12.4102564,0.50625 12.4102564,0.50625 C12.4102564,0.50625 17.6256667,0.5125 21.0974359,0.765625 C21.5845385,0.825 22.6425128,0.828125 23.5856923,1.825 C24.3303077,2.584375 24.5723077,4.30625 24.5723077,4.30625 C24.5723077,4.30625 24.8205128,6.328125 24.8205128,8.353125 L24.8205128,10.31875 C24.8205128,12.34375 24.5723077,14.365625 24.5723077,14.365625 C24.5723077,14.365625 24.3303077,16.0875 23.5856923,16.846875 C22.6425128,17.84375 21.5845385,17.846875 21.0974359,17.90625 C17.6256667,18.159375 12.4102564,18.165625 12.4102564,18.165625 C12.4102564,18.165625 5.95692308,18.1078125 3.97128205,17.915625 C3.41902564,17.8109375 2.178,17.8421875 1.23482051,16.846875 C0.490205128,16.0859375 0.248205128,14.3671875 0.248205128,14.3671875 C0.248205128,14.3671875 0,12.34375 0,10.3203125 L0,8.3515625 L0,8.3515625 Z M9.84753846,12.6171875 L9.84753846,5.59375 L16.5537308,9.1171875 L9.85219231,12.6171875 L9.84908974,12.6171875 L9.84753846,12.6171875 Z" id="Shape"></path>
                    </g>
                </g>
            </g>
        </g>
    </g>
</svg>