<?xml version="1.0" encoding="UTF-8" standalone="no"?>
<svg width="11px" height="10px" viewBox="0 0 11 10" version="1.1" xmlns="http://www.w3.org/2000/svg" xmlns:xlink="http://www.w3.org/1999/xlink">
    <!-- Generator: Sketch 3.8.3 (29802) - http://www.bohemiancoding.com/sketch -->
    <title>Fill 19</title>
    <desc>Created with Sketch.</desc>
    <defs></defs>
    <g id="Home" stroke="none" stroke-width="1" fill="none" fill-rule="evenodd">
        <g transform="translate(-1053.000000, -1467.000000)" id="PRESS" fill="#FFFFFF">
            <g transform="translate(-198.000000, 1202.000000)">
                <g id="TILE-3" transform="translate(918.000000, 175.000000)">
                    <path d="M343.711652,95.4080468 C343.560829,95.2268374 343.33903,95.1230357 343.10348,95.1230357 C342.918944,95.1230357 342.738622,95.1880227 342.596671,95.3066849 L338.861584,98.4214013 L338.870234,90.2927079 C338.870234,89.8568738 338.514913,89.5008872 338.078192,89.5 C337.643245,89.5 337.287258,89.854434 337.286371,90.2909335 L337.277721,98.415191 L333.54951,95.3066849 C333.406672,95.1880227 333.227237,95.1230357 333.0427,95.1230357 C332.80715,95.1230357 332.586239,95.2268374 332.435416,95.4080468 C332.299453,95.5699597 332.235354,95.7753451 332.254428,95.9867191 C332.273503,96.1972059 332.37309,96.3879526 332.535891,96.5230279 L337.566281,100.717238 C337.708232,100.8359 337.888554,100.9 338.07309,100.9 C338.258514,100.9 338.438614,100.835013 338.5799,100.71635 L343.61029,96.5230279 C343.77309,96.3879526 343.872678,96.1972059 343.891752,95.9867191 C343.911714,95.7753451 343.847614,95.5699597 343.711652,95.4080468 L343.711652,95.4080468 Z" id="Fill-19" transform="translate(338.073229, 95.200000) rotate(-137.000000) translate(-338.073229, -95.200000) "></path>
                </g>
            </g>
        </g>
    </g>
</svg>