<?xml version="1.0" encoding="UTF-8" standalone="no"?>
<svg width="26px" height="22px" viewBox="0 0 26 22" version="1.1" xmlns="http://www.w3.org/2000/svg" xmlns:xlink="http://www.w3.org/1999/xlink">
    <!-- Generator: Sketch 3.8.3 (29802) - http://www.bohemiancoding.com/sketch -->
    <title>twitter</title>
    <desc>Created with Sketch.</desc>
    <defs></defs>
    <g id="Home" stroke="none" stroke-width="1" fill="none" fill-rule="evenodd">
        <g transform="translate(-1217.000000, -7536.000000)" id="FOOTER" fill="#55ACEE">
            <g transform="translate(0.000000, 7192.000000)">
                <g id="Group-21" transform="translate(1170.000000, 342.000000)">
                    <g id="twitter" transform="translate(47.820513, 2.000000)">
                        <path d="M24.8205128,3.184375 C23.9052564,3.590625 22.9279487,3.8671875 21.8963462,3.9921875 C22.9465641,3.35625 23.7547821,2.3515625 24.1348462,1.1546875 C23.1513333,1.740625 22.0607821,2.1671875 20.9004231,2.396875 C19.9727564,1.4 18.6510641,0.778125 17.1835513,0.778125 C14.3726282,0.778125 12.0922436,3.071875 12.0922436,5.903125 C12.0922436,6.30625 12.1387821,6.7 12.2241026,7.075 C7.99220513,6.859375 4.23965385,4.81875 1.72812821,1.71875 C1.2875641,2.4734375 1.03935897,3.3546875 1.03935897,4.296875 C1.03935897,6.078125 1.93910256,7.6453125 3.30423077,8.565625 C2.46964103,8.5390625 1.68314103,8.3078125 0.997474359,7.925 L0.997474359,7.9875 C0.997474359,10.471875 2.75042308,12.546875 5.082,13.01875 C4.65384615,13.134375 4.20397436,13.196875 3.74014103,13.196875 C3.41437179,13.196875 3.09480769,13.165625 2.783,13.10625 C3.4314359,15.14375 5.31158974,16.6265625 7.54078205,16.66875 C5.79714103,18.04375 3.60052564,18.8625 1.21620513,18.8625 C0.805115385,18.8625 0.400230769,18.8390625 0.00155128205,18.7921875 C2.2555641,20.2453125 4.93152564,21.0953125 7.80760256,21.0953125 C17.1742436,21.0953125 22.2965769,13.2828125 22.2965769,6.5046875 C22.2965769,6.28125 22.2903718,6.0609375 22.2810641,5.840625 C23.2738846,5.1171875 24.1395,4.215625 24.8220641,3.184375 L24.8205128,3.184375 Z" id="Shape"></path>
                    </g>
                </g>
            </g>
        </g>
    </g>
</svg>