<?xml version="1.0" encoding="UTF-8" standalone="no"?>
<svg width="66px" height="66px" viewBox="0 0 66 66" version="1.1" xmlns="http://www.w3.org/2000/svg" xmlns:xlink="http://www.w3.org/1999/xlink">
    <!-- Generator: Sketch 3.8.3 (29802) - http://www.bohemiancoding.com/sketch -->
    <title>Page 1</title>
    <desc>Created with Sketch.</desc>
    <defs></defs>
    <g id="Page-1" stroke="none" stroke-width="1" fill="none" fill-rule="evenodd">
        <path d="M14.062,26.157 C14.062,11.918 25.605,0.376 39.843,0.376 C54.082,0.376 65.624,11.918 65.624,26.157 C65.624,40.395 54.082,51.938 39.843,51.938 C35.128,51.938 30.71,50.672 26.91,48.465 L9.374,66 C4.199,66 0,61.801 0,56.626 L17.535,39.09 C15.328,35.29 14.062,30.872 14.062,26.157 L14.062,26.157 Z M56.25,26.157 C56.25,17.094 48.906,9.75 39.843,9.75 C30.781,9.75 23.437,17.094 23.437,26.157 C23.437,35.219 30.781,42.563 39.843,42.563 C48.906,42.563 56.25,35.219 56.25,26.157 L56.25,26.157 Z" fill="#555555"></path>
    </g>
</svg>