<?xml version="1.0" encoding="UTF-8" standalone="no"?>
<svg width="69px" height="74px" viewBox="0 0 69 74" version="1.1" xmlns="http://www.w3.org/2000/svg" xmlns:xlink="http://www.w3.org/1999/xlink">
    <!-- Generator: Sketch 3.8.3 (29802) - http://www.bohemiancoding.com/sketch -->
    <title>Page 1</title>
    <desc>Created with Sketch.</desc>
    <defs></defs>
    <g id="Page-8" stroke="none" stroke-width="1" fill="none" fill-rule="evenodd">
        <path d="M67.73,11.547 C66.93,10.984 65.91,10.844 64.992,11.172 L52.266,15.719 C50.918,7.113 43.477,0.5 34.5,0.5 C26.414,0.5 19.563,5.859 17.297,13.207 L1.988,18.676 C0.797,19.102 0,20.23 0,21.5 L0,71 C0,71.977 0.477,72.891 1.27,73.453 C1.785,73.813 2.387,74 3,74 C3.34,74 3.68,73.941 4.008,73.824 L24,66.684 L43.988,73.824 C44.641,74.055 45.352,74.055 46.008,73.824 L67.008,66.324 C68.203,65.898 69,64.766 69,63.5 L69,14 C69,13.023 68.523,12.109 67.73,11.547 L67.73,11.547 Z M21,61.387 L6,66.746 L6,23.613 L16.555,19.844 C16.887,24.047 18.703,28.316 21,32.168 L21,61.387 Z M42,66.742 L27,61.383 L27,40.441 C29.848,43.789 32.227,45.988 32.477,46.215 C33.047,46.738 33.773,47 34.5,47 C35.227,47 35.949,46.738 36.523,46.215 C36.773,45.988 39.148,43.789 42,40.441 L42,66.742 Z M34.5,39.797 C29.914,35.051 22.5,25.824 22.5,18.5 C22.5,11.883 27.883,6.5 34.5,6.5 C41.113,6.5 46.5,11.883 46.5,18.5 C46.5,25.824 39.082,35.051 34.5,39.797 L34.5,39.797 Z M63,61.387 L48,66.742 L48,32.168 C49.879,29.02 51.441,25.59 52.125,22.145 L63,18.258 L63,61.387 Z M34.5,14 C32.02,14 30,16.02 30,18.5 C30,20.98 32.02,23 34.5,23 C36.98,23 39,20.98 39,18.5 C39,16.02 36.98,14 34.5,14 L34.5,14 Z" id="Page-1" fill="#555555"></path>
    </g>
</svg>