<?xml version="1.0" encoding="UTF-8" standalone="no"?>
<svg width="34px" height="34px" viewBox="0 0 34 34" version="1.1" xmlns="http://www.w3.org/2000/svg" xmlns:xlink="http://www.w3.org/1999/xlink">
    <!-- Generator: Sketch 3.8.3 (29802) - http://www.bohemiancoding.com/sketch -->
    <title>Group 2</title>
    <desc>Created with Sketch.</desc>
    <defs></defs>
    <g id="About" stroke="none" stroke-width="1" fill="none" fill-rule="evenodd">
        <g transform="translate(-915.000000, -1473.000000)" id="OUR-PASSION">
            <g transform="translate(-687.000000, 1027.000000)">
                <g id="TERMS" transform="translate(1602.000000, 446.000000)">
                    <g id="Group-2">
                        <circle id="Oval-3" fill="#44915A" cx="17" cy="17" r="17"></circle>
                        <path d="M19.7697305,23.987997 L19.5210594,25.0041456 C18.7758314,25.2986246 18.1795443,25.5226903 17.7358627,25.6771282 C17.2921811,25.831566 16.7757305,25.9079996 16.1878197,25.9079996 C15.2850127,25.9079996 14.5824515,25.6873368 14.0814446,25.2475816 C13.5804378,24.8067793 13.3299344,24.247662 13.3299344,23.5697061 C13.3299344,23.3069 13.3482576,23.0370264 13.3862126,22.7619176 C13.4239059,22.4868089 13.4843723,22.1761009 13.5670881,21.8292702 L14.4997356,18.5308444 C14.5824515,18.2149012 14.6531264,17.9151871 14.7094046,17.6319638 C14.7664681,17.3508346 14.7942145,17.0922167 14.7942145,16.8589894 C14.7942145,16.4378191 14.7073105,16.1433401 14.5335025,15.9776467 C14.3596945,15.8119532 14.0283076,15.7281903 13.5364623,15.7281903 C13.2951205,15.7281903 13.0477582,15.7669306 12.7951607,15.841532 C12.5415162,15.9163951 12.3247797,15.9889023 12.1428571,16.0564361 L12.3923135,15.0389787 C13.0027356,14.7905694 13.5864583,14.5777593 14.1447903,14.4010719 C14.7031224,14.2241228 15.2308286,14.1351247 15.7297414,14.1351247 C16.6265279,14.1351247 17.3186188,14.3518612 17.8044436,14.7853342 C18.2900066,15.219069 18.5334425,15.7813274 18.5334425,16.4744653 C18.5334425,16.6176475 18.5169517,16.870245 18.4831848,17.2312107 C18.4496796,17.5932235 18.3871192,17.9243487 18.2962888,18.2261569 L17.3678295,21.5125417 C17.2921811,21.7761331 17.2236002,22.0779413 17.1641809,22.4174427 C17.1029293,22.7548502 17.0733505,23.0124211 17.0733505,23.185182 C17.0733505,23.6217961 17.1704632,23.9194162 17.3657354,24.0777804 C17.5620547,24.2364064 17.9005091,24.3151958 18.3810987,24.3151958 C18.6069968,24.3151958 18.8637824,24.2751467 19.148838,24.1963572 C19.4341554,24.1178295 19.6417303,24.0482016 19.7697305,23.987997 L19.7697305,23.987997 Z M20.0058371,10.1922482 C20.0058371,10.764977 19.7901477,11.2536812 19.356413,11.6554813 C18.923987,12.0593755 18.402563,12.26093 17.7931879,12.26093 C17.1817188,12.26093 16.6592477,12.0593755 16.2215866,11.6554813 C15.7849725,11.2536812 15.566142,10.764977 15.566142,10.1922482 C15.566142,9.62082822 15.7849725,9.13107705 16.2215866,8.72404173 C16.6582007,8.31700641 17.1817188,8.11466667 17.7931879,8.11466667 C18.402563,8.11466667 18.923987,8.31805345 19.356413,8.72404173 C19.7901477,9.13107705 20.0058371,9.62082822 20.0058371,10.1922482 L20.0058371,10.1922482 Z" id="Page-1" fill="#FFFFFF"></path>
                    </g>
                </g>
            </g>
        </g>
    </g>
</svg>