<?xml version="1.0" encoding="UTF-8"?>
<svg width="261px" height="40px" viewBox="0 0 261 40" version="1.1" xmlns="http://www.w3.org/2000/svg" xmlns:xlink="http://www.w3.org/1999/xlink">
    <!-- Generator: Sketch 40.3 (33839) - http://www.bohemiancoding.com/sketch -->
    <title>TEXT</title>
    <desc>Created with Sketch.</desc>
    <defs></defs>
    <g id="Page-1" stroke="none" stroke-width="1" fill="none" fill-rule="evenodd">
        <g id="logo-type-white" fill="#555555">
            <g id="Symbols">
                <g id="HEADER">
                    <g id="LOGO">
                        <g id="Group">
                            <g id="TEXT">
                                <path d="M4.5660066,39.824365 C6.49669967,39.824365 7.20462046,38.7517578 7.20462046,37.7220548 C7.20462046,35.0512627 2.96782178,35.973705 2.96782178,34.3647941 C2.96782178,33.6890515 3.58993399,33.2278304 4.43729373,33.2278304 C5.22029703,33.2278304 5.97112211,33.4852561 6.50742574,34.0859162 L7.04372937,33.4316258 C6.44306931,32.7987875 5.59570957,32.4233749 4.51237624,32.4233749 C3.09653465,32.4233749 2.04537954,33.2385565 2.04537954,34.4184245 C2.04537954,36.9712297 6.28217822,35.9415268 6.28217822,37.7864112 C6.28217822,38.344167 5.87458746,39.0306357 4.59818482,39.0306357 C3.58993399,39.0306357 2.81765677,38.5372363 2.35643564,38.0009327 L1.82013201,38.6874013 C2.41006601,39.3524179 3.33250825,39.824365 4.5660066,39.824365 L4.5660066,39.824365 L4.5660066,39.824365 Z M13.4521452,39.824365 C15.3935644,39.824365 16.380363,38.6874013 16.380363,36.9068733 L16.380363,32.5413617 L15.4793729,32.5413617 L15.4793729,36.8961472 C15.4793729,38.2047281 14.7714521,39.0306357 13.4521452,39.0306357 C12.1328383,39.0306357 11.4356436,38.2047281 11.4356436,36.8961472 L11.4356436,32.5413617 L10.5346535,32.5413617 L10.5346535,36.9175994 C10.5346535,38.6766753 11.5214521,39.824365 13.4521452,39.824365 L13.4521452,39.824365 L13.4521452,39.824365 Z M22.370462,39.824365 C24.3011551,39.824365 25.0090759,38.7517578 25.0090759,37.7220548 C25.0090759,35.0512627 20.7722772,35.973705 20.7722772,34.3647941 C20.7722772,33.6890515 21.3943894,33.2278304 22.2417492,33.2278304 C23.0247525,33.2278304 23.7755776,33.4852561 24.3118812,34.0859162 L24.8481848,33.4316258 C24.2475248,32.7987875 23.400165,32.4233749 22.3168317,32.4233749 C20.9009901,32.4233749 19.849835,33.2385565 19.849835,34.4184245 C19.849835,36.9712297 24.0866337,35.9415268 24.0866337,37.7864112 C24.0866337,38.344167 23.6790429,39.0306357 22.4026403,39.0306357 C21.3943894,39.0306357 20.6221122,38.5372363 20.1608911,38.0009327 L19.6245875,38.6874013 C20.2145215,39.3524179 21.1369637,39.824365 22.370462,39.824365 L22.370462,39.824365 L22.370462,39.824365 Z M30.9348185,39.6956522 L30.9348185,33.3350911 L33.2087459,33.3350911 L33.2087459,32.5413617 L27.7813531,32.5413617 L27.7813531,33.3350911 L30.0445545,33.3350911 L30.0445545,39.6956522 L30.9348185,39.6956522 L30.9348185,39.6956522 Z M41.7945545,39.6956522 L38.919967,32.5413617 L37.8151815,32.5413617 L34.929868,39.6956522 L35.9488449,39.6956522 L36.5816832,38.0974674 L40.1427393,38.0974674 L40.7755776,39.6956522 L41.7945545,39.6956522 L41.7945545,39.6956522 Z M39.8853135,37.3144641 L36.849835,37.3144641 L38.3622112,33.4530779 L39.8853135,37.3144641 L39.8853135,37.3144641 Z M45.6179868,39.6956522 L45.6179868,32.5413617 L44.7277228,32.5413617 L44.7277228,39.6956522 L45.6179868,39.6956522 L45.6179868,39.6956522 Z M55.2120462,39.6956522 L55.2120462,32.5413617 L54.3217822,32.5413617 L54.3217822,38.1296456 L50.2029703,32.5413617 L49.2912541,32.5413617 L49.2912541,39.6956522 L50.1815182,39.6956522 L50.1815182,33.9893815 L54.3539604,39.6956522 L55.2120462,39.6956522 L55.2120462,39.6956522 Z M65.009901,39.6956522 L62.1353135,32.5413617 L61.0305281,32.5413617 L58.1452145,39.6956522 L59.1641914,39.6956522 L59.7970297,38.0974674 L63.3580858,38.0974674 L63.9909241,39.6956522 L65.009901,39.6956522 L65.009901,39.6956522 Z M63.1006601,37.3144641 L60.0651815,37.3144641 L61.5775578,33.4530779 L63.1006601,37.3144641 L63.1006601,37.3144641 Z M71.2037954,39.6956522 C72.5123762,39.6956522 73.2739274,38.9126489 73.2739274,37.7649591 C73.2739274,36.9068733 72.6410891,36.12387 71.879538,36.0058832 C72.5338284,35.8664443 73.1344884,35.2657842 73.1344884,34.3647941 C73.1344884,33.2921868 72.3729373,32.5413617 71.1287129,32.5413617 L67.9430693,32.5413617 L67.9430693,39.6956522 L71.2037954,39.6956522 L71.2037954,39.6956522 Z M70.9785479,35.6411967 L68.8333333,35.6411967 L68.8333333,33.3350911 L70.9785479,33.3350911 C71.7830033,33.3350911 72.2120462,33.8499426 72.2120462,34.493507 C72.2120462,35.1477974 71.7830033,35.6411967 70.9785479,35.6411967 L70.9785479,35.6411967 L70.9785479,35.6411967 Z M71.0321782,38.9019228 L68.8333333,38.9019228 L68.8333333,36.4349261 L71.0321782,36.4349261 C71.9009901,36.4349261 72.3514851,37.014134 72.3514851,37.6684245 C72.3514851,38.4299756 71.8580858,38.9019228 71.0321782,38.9019228 L71.0321782,38.9019228 L71.0321782,38.9019228 Z M80.7871287,39.6956522 L80.7871287,38.9019228 L77.4620462,38.9019228 L77.4620462,32.5413617 L76.5717822,32.5413617 L76.5717822,39.6956522 L80.7871287,39.6956522 L80.7871287,39.6956522 Z M88.6650165,39.6956522 L88.6650165,38.9019228 L84.8679868,38.9019228 L84.8679868,36.4349261 L88.589934,36.4349261 L88.589934,35.6411967 L84.8679868,35.6411967 L84.8679868,33.3350911 L88.6650165,33.3350911 L88.6650165,32.5413617 L83.9777228,32.5413617 L83.9777228,39.6956522 L88.6650165,39.6956522 L88.6650165,39.6956522 Z M102.05033,39.6956522 L100.119637,36.7781604 C101.09571,36.6923518 101.985974,35.9844311 101.985974,34.6973023 C101.985974,33.3779954 101.042079,32.5413617 99.7334983,32.5413617 L96.8589109,32.5413617 L96.8589109,39.6956522 L97.7491749,39.6956522 L97.7491749,36.8532429 L99.1864686,36.8532429 L100.999175,39.6956522 L102.05033,39.6956522 L102.05033,39.6956522 Z M99.6262376,36.0702396 L97.7491749,36.0702396 L97.7491749,33.3350911 L99.6262376,33.3350911 C100.473597,33.3350911 101.063531,33.8821208 101.063531,34.6973023 C101.063531,35.5017578 100.473597,36.0702396 99.6262376,36.0702396 L99.6262376,36.0702396 L99.6262376,36.0702396 Z M111.515677,39.6956522 L108.641089,32.5413617 L107.536304,32.5413617 L104.65099,39.6956522 L105.669967,39.6956522 L106.302805,38.0974674 L109.863861,38.0974674 L110.4967,39.6956522 L111.515677,39.6956522 L111.515677,39.6956522 Z M109.606436,37.3144641 L106.570957,37.3144641 L108.083333,33.4530779 L109.606436,37.3144641 L109.606436,37.3144641 Z M115.339109,39.6956522 L115.339109,32.5413617 L114.448845,32.5413617 L114.448845,39.6956522 L115.339109,39.6956522 L115.339109,39.6956522 Z M124.933168,39.6956522 L124.933168,32.5413617 L124.042904,32.5413617 L124.042904,38.1296456 L119.924092,32.5413617 L119.012376,32.5413617 L119.012376,39.6956522 L119.90264,39.6956522 L119.90264,33.9893815 L124.075083,39.6956522 L124.933168,39.6956522 L124.933168,39.6956522 Z M129.4967,39.6956522 L129.4967,36.4349261 L133.218647,36.4349261 L133.218647,35.6411967 L129.4967,35.6411967 L129.4967,33.3350911 L133.293729,33.3350911 L133.293729,32.5413617 L128.606436,32.5413617 L128.606436,39.6956522 L129.4967,39.6956522 L129.4967,39.6956522 Z M139.777228,39.824365 C141.890264,39.824365 143.338284,38.2369063 143.338284,36.12387 C143.338284,34.0108337 141.890264,32.4233749 139.777228,32.4233749 C137.664191,32.4233749 136.226898,34.0108337 136.226898,36.12387 C136.226898,38.2369063 137.664191,39.824365 139.777228,39.824365 L139.777228,39.824365 L139.777228,39.824365 Z M139.777228,39.0306357 C138.168317,39.0306357 137.14934,37.7864112 137.14934,36.12387 C137.14934,34.4506027 138.168317,33.2171043 139.777228,33.2171043 C141.375413,33.2171043 142.415842,34.4506027 142.415842,36.12387 C142.415842,37.7864112 141.375413,39.0306357 139.777228,39.0306357 L139.777228,39.0306357 L139.777228,39.0306357 Z M151.913366,39.6956522 L149.982673,36.7781604 C150.958746,36.6923518 151.84901,35.9844311 151.84901,34.6973023 C151.84901,33.3779954 150.905116,32.5413617 149.596535,32.5413617 L146.721947,32.5413617 L146.721947,39.6956522 L147.612211,39.6956522 L147.612211,36.8532429 L149.049505,36.8532429 L150.862211,39.6956522 L151.913366,39.6956522 L151.913366,39.6956522 Z M149.489274,36.0702396 L147.612211,36.0702396 L147.612211,33.3350911 L149.489274,33.3350911 C150.336634,33.3350911 150.926568,33.8821208 150.926568,34.6973023 C150.926568,35.5017578 150.336634,36.0702396 149.489274,36.0702396 L149.489274,36.0702396 L149.489274,36.0702396 Z M159.941419,39.6956522 L159.941419,38.9019228 L156.144389,38.9019228 L156.144389,36.4349261 L159.866337,36.4349261 L159.866337,35.6411967 L156.144389,35.6411967 L156.144389,33.3350911 L159.941419,33.3350911 L159.941419,32.5413617 L155.254125,32.5413617 L155.254125,39.6956522 L159.941419,39.6956522 L159.941419,39.6956522 Z M165.674092,39.824365 C167.604785,39.824365 168.312706,38.7517578 168.312706,37.7220548 C168.312706,35.0512627 164.075908,35.973705 164.075908,34.3647941 C164.075908,33.6890515 164.69802,33.2278304 165.54538,33.2278304 C166.328383,33.2278304 167.079208,33.4852561 167.615512,34.0859162 L168.151815,33.4316258 C167.551155,32.7987875 166.703795,32.4233749 165.620462,32.4233749 C164.20462,32.4233749 163.153465,33.2385565 163.153465,34.4184245 C163.153465,36.9712297 167.390264,35.9415268 167.390264,37.7864112 C167.390264,38.344167 166.982673,39.0306357 165.706271,39.0306357 C164.69802,39.0306357 163.925743,38.5372363 163.464521,38.0009327 L162.928218,38.6874013 C163.518152,39.3524179 164.440594,39.824365 165.674092,39.824365 L165.674092,39.824365 L165.674092,39.824365 Z M174.238449,39.6956522 L174.238449,33.3350911 L176.512376,33.3350911 L176.512376,32.5413617 L171.084983,32.5413617 L171.084983,33.3350911 L173.348185,33.3350911 L173.348185,39.6956522 L174.238449,39.6956522 L174.238449,39.6956522 Z M189.157591,39.6956522 L189.157591,38.9019228 L185.360561,38.9019228 L185.360561,36.4349261 L189.082508,36.4349261 L189.082508,35.6411967 L185.360561,35.6411967 L185.360561,33.3350911 L189.157591,33.3350911 L189.157591,32.5413617 L184.470297,32.5413617 L184.470297,39.6956522 L189.157591,39.6956522 L189.157591,39.6956522 Z M195.962871,39.824365 C197.228548,39.824365 198.086634,39.223705 198.687294,38.3977974 L197.936469,37.9902066 C197.528878,38.5908667 196.778053,39.0306357 195.962871,39.0306357 C194.396865,39.0306357 193.206271,37.8185895 193.206271,36.12387 C193.206271,34.4076984 194.396865,33.2171043 195.962871,33.2171043 C196.778053,33.2171043 197.528878,33.6461472 197.936469,34.2575334 L198.676568,33.8392165 C198.108086,33.024035 197.228548,32.4233749 195.962871,32.4233749 C193.903465,32.4233749 192.283828,33.9250251 192.283828,36.12387 C192.283828,38.3227149 193.903465,39.824365 195.962871,39.824365 L195.962871,39.824365 L195.962871,39.824365 Z M205.084983,39.824365 C207.19802,39.824365 208.64604,38.2369063 208.64604,36.12387 C208.64604,34.0108337 207.19802,32.4233749 205.084983,32.4233749 C202.971947,32.4233749 201.534653,34.0108337 201.534653,36.12387 C201.534653,38.2369063 202.971947,39.824365 205.084983,39.824365 L205.084983,39.824365 L205.084983,39.824365 Z M205.084983,39.0306357 C203.476073,39.0306357 202.457096,37.7864112 202.457096,36.12387 C202.457096,34.4506027 203.476073,33.2171043 205.084983,33.2171043 C206.683168,33.2171043 207.723597,34.4506027 207.723597,36.12387 C207.723597,37.7864112 206.683168,39.0306357 205.084983,39.0306357 L205.084983,39.0306357 L205.084983,39.0306357 Z M216.127063,39.6956522 L216.127063,38.9019228 L212.80198,38.9019228 L212.80198,32.5413617 L211.911716,32.5413617 L211.911716,39.6956522 L216.127063,39.6956522 L216.127063,39.6956522 Z M222.213696,39.824365 C224.326733,39.824365 225.774752,38.2369063 225.774752,36.12387 C225.774752,34.0108337 224.326733,32.4233749 222.213696,32.4233749 C220.10066,32.4233749 218.663366,34.0108337 218.663366,36.12387 C218.663366,38.2369063 220.10066,39.824365 222.213696,39.824365 L222.213696,39.824365 L222.213696,39.824365 Z M222.213696,39.0306357 C220.604785,39.0306357 219.585809,37.7864112 219.585809,36.12387 C219.585809,34.4506027 220.604785,33.2171043 222.213696,33.2171043 C223.811881,33.2171043 224.85231,34.4506027 224.85231,36.12387 C224.85231,37.7864112 223.811881,39.0306357 222.213696,39.0306357 L222.213696,39.0306357 L222.213696,39.0306357 Z M231.60396,39.6956522 C233.834983,39.6956522 235.272277,38.1618238 235.272277,36.12387 C235.272277,34.0966423 233.834983,32.5413617 231.60396,32.5413617 L229.158416,32.5413617 L229.158416,39.6956522 L231.60396,39.6956522 L231.60396,39.6956522 Z M231.60396,38.9019228 L230.04868,38.9019228 L230.04868,33.3350911 L231.60396,33.3350911 C233.373762,33.3350911 234.349835,34.5793155 234.349835,36.12387 C234.349835,37.6576984 233.341584,38.9019228 231.60396,38.9019228 L231.60396,38.9019228 L231.60396,38.9019228 Z M242.056106,39.8350911 C243.225248,39.8350911 244.20132,39.3416918 244.866337,38.5908667 L244.866337,36.0166093 L241.519802,36.0166093 L241.519802,36.8103386 L243.986799,36.8103386 L243.986799,38.2583584 C243.622112,38.6230449 242.914191,39.0306357 242.056106,39.0306357 C240.490099,39.0306357 239.299505,37.8185895 239.299505,36.12387 C239.299505,34.4076984 240.490099,33.2171043 242.056106,33.2171043 C242.914191,33.2171043 243.675743,33.6246951 244.126238,34.203903 L244.834158,33.7534079 C244.212046,32.9811307 243.332508,32.4233749 242.056106,32.4233749 C240.018152,32.4233749 238.377063,33.8928469 238.377063,36.12387 C238.377063,38.344167 240.018152,39.8350911 242.056106,39.8350911 L242.056106,39.8350911 L242.056106,39.8350911 Z M253.00165,39.6956522 L253.00165,38.9019228 L249.20462,38.9019228 L249.20462,36.4349261 L252.926568,36.4349261 L252.926568,35.6411967 L249.20462,35.6411967 L249.20462,33.3350911 L253.00165,33.3350911 L253.00165,32.5413617 L248.314356,32.5413617 L248.314356,39.6956522 L253.00165,39.6956522 L253.00165,39.6956522 Z" id="SUSTAINABLE-RAINFORE"></path>
                                <path d="M92.246617,3.10494738 L92.3878253,19.6483554 L91.3679889,21.7770768 C91.5373447,21.7854879 91.7309967,22.0898897 91.9003525,22.0983007 C92.767247,22.141355 94.4767398,21.9314728 94.4767398,21.9314728 L102.029496,22.0383623 L103.388225,22.3646113 L104.435379,22.4301426 L104.960432,21.8399185 L105.990379,20.5810817 L106.280446,19.0833717 L105.972822,17.4744912 L105.130636,17.4274949 L104.458567,17.9455533 L103.463375,18.6955454 L102.167792,19.100148 L100.325471,19.3603675 L97.3031314,19.3143692 L97.527093,2.34671646 L98.2227229,1.82125312 L98.6548401,1.18609141 L98.509223,0.438151087 L97.7880235,0.104165312 L95.7159718,0.772002795 L94.0187195,0.426233924 L92.822992,0.413051227 L91.6716604,0.536802217 L91.2304421,1.03969893 L91.3345681,1.78451543 L92.246617,3.10494738 L92.246617,3.10494738 Z M107.376539,0.56709316 C107.165664,0.782048639 107.429811,1.54845967 107.429811,1.54845967 L107.968342,2.12589291 L108.124661,3.61316883 L108.214448,9.01378724 L108.194603,13.1184362 L108.140191,15.8854784 L108.43417,17.8925716 L109.406568,19.8815199 L110.872302,20.9722406 L112.409431,21.7335122 L114.536181,22.3563575 L117.057797,22.3801202 L119.450241,21.6806882 L121.57172,20.8269618 L122.910301,18.9433464 L123.466613,16.8797356 L123.640024,14.770358 L123.754218,12.0663194 L123.928633,7.21880754 L123.965894,4.5727295 L123.69254,2.69935459 L124.264613,2.14107814 L124.804901,1.53328123 L124.795784,0.687863732 L124.022791,0.536459704 L122.545272,0.535558964 L121.035556,0.538042291 L119.194495,0.363010784 L117.76629,0.353940362 L117.454195,1.14382209 L117.918708,1.83535466 L118.25349,2.30130336 L118.453317,2.94091581 L118.439893,8.62116757 L118.490366,13.1135405 L118.566909,15.8336686 L118.34184,17.7328501 L117.606079,18.9785027 L116.54646,19.6973285 L115.162597,19.7663238 L114.305056,19.0662255 L113.540289,17.8223891 L113.516352,16.10856 L113.51801,12.5866981 L113.416441,8.65100448 L113.39796,4.96879328 L113.273257,3.02364822 L113.654669,2.3590818 L114.186978,1.67537031 L114.629856,0.453333321 L113.815771,0.223522076 L112.407554,0.344951716 L110.972562,0.495775488 L109.564154,0.643805077 C109.564154,0.643805077 108.961838,0.410451434 108.660681,0.293774613 C108.461266,0.497047486 107.575954,0.363820287 107.376539,0.56709316 L107.376539,0.56709316 Z M193.753122,0.56709316 C193.542247,0.782048639 193.806393,1.54845967 193.806393,1.54845967 L194.344925,2.12589291 L194.501244,3.61316883 L194.591031,9.01378724 L194.571186,13.1184362 L194.516774,15.8854784 L194.810753,17.8925716 L195.78315,19.8815199 L197.248885,20.9722406 L198.786014,21.7335122 L200.912764,22.3563575 L203.434379,22.3801202 L205.826824,21.6806882 L207.948303,20.8269618 L209.286884,18.9433464 L209.843196,16.8797356 L210.016606,14.770358 L210.1308,12.0663194 L210.305216,7.21880754 L210.342477,4.5727295 L210.069123,2.69935459 L210.641196,2.14107814 L211.181484,1.53328123 L211.172367,0.687863732 L210.399374,0.536459704 L208.921855,0.535558964 L207.412139,0.538042291 L205.571078,0.363010784 L204.142873,0.353940362 L203.830778,1.14382209 L204.295291,1.83535466 L204.630073,2.30130336 L204.8299,2.94091581 L204.816476,8.62116757 L204.866949,13.1135405 L204.943492,15.8336686 L204.718423,17.7328501 L203.982662,18.9785027 L202.923043,19.6973285 L201.53918,19.7663238 L200.681639,19.0662255 L199.916872,17.8223891 L199.892935,16.10856 L199.894592,12.5866981 L199.793024,8.65100448 L199.774543,4.96879328 L199.64984,3.02364822 L200.031252,2.3590818 L200.563561,1.67537031 L201.006439,0.453333321 L200.192354,0.223522076 L198.784137,0.344951716 L197.349145,0.495775488 L195.940737,0.643805077 L195.037263,0.293774613 C194.837849,0.497047486 193.952537,0.363820287 193.753122,0.56709316 L193.753122,0.56709316 Z M-5.32907052e-15,21.9277209 L0.615837516,22.4264162 L1.79717636,22.2999296 L2.81195743,22.4010708 L3.95033857,22.2908195 L4.56280212,22.1194854 L5.25284915,21.5611439 L5.78009342,20.8050402 L5.96448543,19.8901601 L6.23464529,16.9442375 L6.30371571,12.389474 L8.0425051,12.5718463 L8.85363499,12.6401195 L9.34253673,13.4159175 L10.3102603,14.403461 L10.9110196,14.2463445 L11.5523563,13.2707669 L12.1743753,12.2088418 L12.3598431,11.2690353 L12.5451609,10.3740142 L12.5175528,9.84411419 L11.9373569,9.2254193 L11.2338159,9.36504076 L8.85538388,9.55652777 L6.53726423,9.50811299 L6.44896683,3.39883182 L10.0396834,3.46268843 L11.4183342,3.72968879 L13.6047368,5.41516619 L14.4237899,5.57087889 L14.9276167,4.96970684 L14.8734959,4.35432109 L14.6974384,3.40457501 L14.5275045,2.59145093 L14.1968032,1.49946958 L13.1573925,0.487889576 L11.9819673,0.5832395 L8.37149946,0.709195948 L5.76149624,0.609205591 L3.11790505,0.466919878 L1.31004719,0.385886618 L0.519461718,0.502029834 L0.295109465,1.56112082 L1.27073073,2.44900304 L1.24735407,4.02283445 L1.24885183,6.3135344 L1.13512587,9.30721322 L1.08094933,15.2011795 L0.965899637,18.5037395 L1.01166443,19.7217548 L0.817342288,20.2739247 L0.25880555,21.2104957 L-5.32907052e-15,21.9277209 L-5.32907052e-15,21.9277209 Z M17.0738015,2.90797818 L17.1968432,13.0556128 L17.0579956,20.6549317 L16.7241131,21.3602931 L16.1364833,22.0387901 L16.2465479,22.6164815 L17.0853773,22.8081081 L18.8866869,22.8281613 L21.0757345,22.5130938 L22.500659,20.9667581 L22.7171055,9.31142764 L22.6113389,2.83291701 L23.624163,1.57248471 L23.431041,1.07765551 L22.4780598,0.809633188 L20.6205196,1.18630853 L18.7336086,1.15821176 L17.5619672,1.00001019 L16.84455,0.754180865 L16.1466259,1.0500129 L16.026939,1.85470261 L17.0738015,2.90797818 L17.0738015,2.90797818 Z M57.1369883,1.33027829 L55.9108078,1.07152694 L54.1425925,0.477847272 L52.0630294,0.622017194 L49.7262807,1.28680458 L47.3733314,2.79311658 L46.3064983,3.80559015 L45.1717524,5.24020097 L44.5527463,6.34777188 L44.1177682,7.68174582 L43.854805,8.85276349 L43.7012287,9.94055636 L43.5444421,11.0668346 L43.4794221,12.5191318 L43.6060157,13.8292682 L43.9346126,15.27635 L44.4691891,16.9863686 L45.1222964,18.3325414 L45.9329092,19.5279413 L46.7935043,20.5819068 L47.8717625,21.405293 L49.4022228,22.3149106 L50.4214218,22.7401296 L51.4814157,22.9947837 L52.8936088,23.1147398 L54.0526476,23.0823999 L55.3863786,22.9722951 L56.1918584,22.6560234 L57.9332619,21.6096826 L59.0869495,20.6872627 L59.6343759,19.8420402 L59.5819923,19.1262729 L58.8755102,18.6782653 L57.8694264,18.8146504 L57.0018774,19.6112263 L56.3756625,19.7102885 L55.0758091,19.8672599 L53.6579942,19.6773955 L52.7029915,19.517317 L51.85034,19.0630602 L50.8834346,18.0435193 L50.0886592,16.7207909 L49.6411504,15.4376761 L49.3570198,14.067482 L49.2384435,12.3866167 L49.4587359,10.2729241 L49.8640635,8.36770392 L50.3306626,6.81444915 L51.1831445,5.18889906 L52.0350102,4.28029587 L53.167708,3.5536169 L54.5554969,3.30309392 L55.3560095,3.38829003 L56.1510574,3.69247027 L58.3366588,7.1502846 L58.8653185,7.19681276 L59.7386488,6.76250132 L60.0686796,5.44359488 L59.8285115,2.87094032 L59.8946301,1.98764077 L59.2223102,0.868712632 L58.3679475,0.648336768 L57.1369883,1.33027829 L57.1369883,1.33027829 Z M26.899363,5.36760898 L26.8627759,8.20757034 L26.8318914,11.9715418 L26.7508059,15.0791504 L26.8408954,17.1688064 L26.8187893,19.5637219 L26.5246543,20.6509243 L25.788024,21.7860618 L26.1220016,22.3483476 L26.784988,22.5634147 L27.8915542,22.5289893 L28.6384706,22.346197 L29.6269315,21.4134512 L30.0696524,20.7315904 L30.3539049,18.9958743 L30.4837897,14.9268592 L30.4058072,12.1072328 L30.4404407,10.5462706 L30.5369292,9.80365445 L36.7521648,16.7176524 L37.1774078,17.3066861 L37.3096936,18.0188253 L37.5401114,18.7864581 L37.3394967,19.7131839 L37.2376624,20.4494293 L36.8808203,21.0051416 L36.3499693,21.7436985 L36.5004124,22.2928787 L37.2386452,22.6665853 L37.8354511,22.7218032 L38.527825,22.6148263 L39.4225961,22.4089716 L40.3093755,21.6131141 L40.6943446,20.8009716 L40.9275977,18.8656241 L41.0471208,15.0295054 L41.1035935,10.9501674 L41.1243528,5.42957403 L41.289079,2.82503391 L42.2405045,1.66678746 L42.0970648,0.909241456 L41.2089592,0.762392267 L39.1984089,0.994118657 L37.9861614,0.944877608 L37.1699787,0.700068748 L36.4644377,1.17140849 L36.5520566,1.82419329 L37.373143,2.58947941 L37.4908557,3.52060117 L37.5867345,5.47841934 L37.521589,7.99659036 L37.4386195,9.43953187 L34.5378019,6.3098506 L31.6404671,2.76083036 L31.1050485,1.39971517 L30.8042374,0.693281819 L30.1476025,0.276696306 L29.2025556,0.493331715 L28.4095922,0.865683822 L27.3288843,1.62807792 L26.1950686,2.90592665 L25.7632125,3.7973476 L26.899363,5.36760898 L26.899363,5.36760898 Z M127.874805,5.36760898 L127.838218,8.20757034 L127.807333,11.9715418 L127.726248,15.0791504 L127.816337,17.1688064 L127.794231,19.5637219 L127.500096,20.6509243 L126.763466,21.7860618 L127.097444,22.3483476 L127.76043,22.5634147 L128.866996,22.5289893 L129.613913,22.346197 L130.602373,21.4134512 L131.045094,20.7315904 L131.329347,18.9958743 L131.459232,14.9268592 L131.381249,12.1072328 L131.415883,10.5462706 L131.512371,9.80365445 L137.727607,16.7176524 L138.15285,17.3066861 L138.285136,18.0188253 L138.515553,18.7864581 L138.314939,19.7131839 L138.213104,20.4494293 L137.856262,21.0051416 L137.325411,21.7436985 L137.475854,22.2928787 L138.214087,22.6665853 L138.810893,22.7218032 L139.503267,22.6148263 L140.398038,22.4089716 L141.284817,21.6131141 L141.669787,20.8009716 L141.90304,18.8656241 L142.022563,15.0295054 L142.079035,10.9501674 L142.099795,5.42957403 L142.264521,2.82503391 L143.215946,1.66678746 L143.072507,0.909241456 L142.184401,0.762392267 L140.173851,0.994118657 L138.961603,0.944877608 L138.145421,0.700068748 L137.43988,1.17140849 L137.527499,1.82419329 L138.348585,2.58947941 L138.466298,3.52060117 L138.562176,5.47841934 L138.497031,7.99659036 L138.414061,9.43953187 L135.513244,6.3098506 L132.615909,2.76083036 L132.08049,1.39971517 L131.779679,0.693281819 L131.123044,0.276696306 L130.177998,0.493331715 L129.385034,0.865683822 L128.304326,1.62807792 L127.170511,2.90592665 L126.738655,3.7973476 L127.874805,5.36760898 L127.874805,5.36760898 Z M176.537669,5.36760898 L176.501082,8.20757034 L176.470197,11.9715418 L176.389111,15.0791504 L176.479201,17.1688064 L176.457095,19.5637219 L176.16296,20.6509243 L175.42633,21.7860618 L175.760307,22.3483476 L176.423294,22.5634147 L177.52986,22.5289893 L178.276776,22.346197 L179.265237,21.4134512 L179.707958,20.7315904 L179.99221,18.9958743 L180.122095,14.9268592 L180.044113,12.1072328 L180.078746,10.5462706 L180.175235,9.80365445 L186.39047,16.7176524 L186.815713,17.3066861 L186.947999,18.0188253 L187.178417,18.7864581 L186.977802,19.7131839 L186.875968,20.4494293 L186.519126,21.0051416 L185.988275,21.7436985 L186.138718,22.2928787 L186.876951,22.6665853 L187.473757,22.7218032 L188.166131,22.6148263 L189.060902,22.4089716 L189.947681,21.6131141 L190.33265,20.8009716 L190.565903,18.8656241 L190.685426,15.0295054 L190.741899,10.9501674 L190.762658,5.42957403 L190.927385,2.82503391 L191.87881,1.66678746 L191.73537,0.909241456 L190.847265,0.762392267 L188.836715,0.994118657 L187.624467,0.944877608 L186.808284,0.700068748 L186.102743,1.17140849 L186.190362,1.82419329 L187.011449,2.58947941 L187.129161,3.52060117 L187.22504,5.47841934 L187.159895,7.99659036 L187.076925,9.43953187 L184.176107,6.3098506 L181.278773,2.76083036 L180.743354,1.39971517 L180.442543,0.693281819 L179.785908,0.276696306 L178.840861,0.493331715 L178.047898,0.865683822 L176.96719,1.62807792 L175.833374,2.90592665 L175.401518,3.7973476 L176.537669,5.36760898 L176.537669,5.36760898 Z M65.2595631,22.8476652 L63.7141913,22.6959358 L62.4019186,22.6748908 L61.4938463,22.8240092 L60.7777814,22.5158093 L60.9443239,21.5696048 L61.5401472,20.897157 L61.9556946,20.5363564 L62.7005197,18.8105986 L66.9568775,4.92617886 L66.9371553,3.98969401 L66.2450902,2.89122729 L66.8592129,1.93243401 L69.3091674,0.928516649 L70.8486973,0.662421023 L72.1167163,0.833598526 L72.334787,1.93589202 L72.0185363,2.48503625 L72.591522,4.10802468 L73.6755336,7.50136911 L74.4999568,9.97492493 L75.2129087,11.8581235 L76.1784065,15.0653923 L77.3943953,18.5524917 L78.6164135,21.2531322 L79.1590328,22.3656668 L78.7928858,22.9703755 L77.5817122,22.9347194 L75.8845931,22.7947106 L74.5311863,22.7421764 L73.5629392,22.4064499 L72.862209,21.23703 L72.1287046,19.646398 L71.6178179,17.8349972 L66.7194193,17.7838317 L65.7880062,20.8181705 L66.4670937,21.9394898 L66.3187967,22.6856249 L65.2595631,22.8476652 L65.2595631,22.8476652 Z M69.1045501,10.052158 L70.8027314,14.8592164 L67.7252798,14.9993598 L69.1045501,10.052158 L69.1045501,10.052158 Z M147.34166,22.1852441 L145.796288,22.0335148 L144.484015,22.0124698 L143.575943,22.1615882 L142.859878,21.8533883 L143.026421,20.9071838 L143.622244,20.234736 L144.037791,19.8739354 L144.782617,18.1481776 L149.038974,4.26375784 L149.019252,3.32727299 L148.327187,2.22880627 L148.94131,1.27001299 L151.391264,0.266095626 L152.930794,-1.77635684e-14 L154.198813,0.171177503 L154.416884,1.273471 L154.100633,1.82261522 L154.673619,3.44560365 L155.75763,6.83894808 L156.582054,9.3125039 L157.295005,11.1957025 L158.260503,14.4029712 L159.476492,17.8900707 L160.69851,20.5907112 L161.24113,21.7032458 L160.874983,22.3079545 L159.663809,22.2722984 L157.96669,22.1322896 L156.613283,22.0797554 L155.645036,21.7440289 L154.944306,20.574609 L154.210801,18.983977 L153.699915,17.1725762 L148.801516,17.1214106 L147.870103,20.1557495 L148.549191,21.2770688 L148.400894,22.0232039 L147.34166,22.1852441 L147.34166,22.1852441 Z M151.186647,9.38973703 L152.884828,14.1967954 L149.807377,14.3369388 L151.186647,9.38973703 L151.186647,9.38973703 Z M247.10053,22.1852441 L245.555158,22.0335148 L244.242886,22.0124698 L243.334813,22.1615882 L242.618749,21.8533883 L242.785291,20.9071838 L243.381114,20.234736 L243.796662,19.8739354 L244.541487,18.1481776 L248.797845,4.26375784 L248.778122,3.32727299 L248.086057,2.22880627 L248.70018,1.27001299 L251.150135,0.266095626 L252.689664,7.28306304e-14 L253.957683,0.171177503 L254.175754,1.273471 L253.859503,1.82261522 L254.432489,3.44560365 L255.516501,6.83894808 L256.340924,9.3125039 L257.053876,11.1957025 L258.019374,14.4029712 L259.235362,17.8900707 L260.457381,20.5907112 L261,21.7032458 L260.633853,22.3079545 L259.422679,22.2722984 L257.72556,22.1322896 L256.372154,22.0797554 L255.403906,21.7440289 L254.703176,20.574609 L253.969672,18.983977 L253.458785,17.1725762 L248.560386,17.1214106 L247.628973,20.1557495 L248.308061,21.2770688 L248.159764,22.0232039 L247.10053,22.1852441 L247.10053,22.1852441 Z M250.945517,9.38973703 L252.643699,14.1967954 L249.566247,14.3369388 L250.945517,9.38973703 L250.945517,9.38973703 Z M223.830334,9.34117922 L222.682198,9.60223453 L219.502951,9.69456095 L218.720571,9.5670716 L218.298072,8.78863653 L218.383841,7.52343379 L218.493606,5.18184691 L218.088256,3.51597919 L221.342073,3.53034679 L223.5504,3.91536444 L224.674007,4.32396104 L226.511651,5.64246475 L227.084887,5.35910667 L227.245308,4.28226476 L226.654194,2.04440346 L226.074071,1.05499751 L225.187641,0.494552196 L224.163116,0.395736503 L222.850807,0.606170192 L220.201894,0.742141258 L216.135052,0.658321874 L212.79826,0.455874849 L212.242677,0.928667687 L212.400994,1.53820449 L213.298782,2.58752816 L213.033031,20.1449347 L212.157248,21.2178843 L212.111214,22.1268493 L213.400401,22.4846451 L216.607604,22.3847601 L219.983361,22.5004285 L222.438256,22.4412853 L225.108962,22.9610262 L225.953289,22.3306881 L226.681855,21.1005053 L227.018498,19.4951426 L227.151208,18.2960138 L226.409097,17.6451644 L225.564842,18.1709642 L224.744185,18.9854491 L224.10982,19.2879508 L222.655628,19.5888069 L218.157614,19.6812906 L218.451054,18.6245109 L218.470944,16.2187362 L218.420626,12.5725175 L220.933308,12.6109142 L221.755173,13.4520372 L222.43393,14.3176085 L223.396172,14.3675748 L224.396171,13.1947342 L224.842206,11.4066612 L225.014376,9.86973751 L223.830334,9.34117922 L223.830334,9.34117922 Z M233.473982,21.7390796 L230.971165,12.9864906 L228.887981,5.06116827 L228.395297,3.33454502 L228.030116,2.2577407 L227.133181,1.2173411 L228.17945,0.459457996 L229.38614,0.613589415 L231.18961,0.682353507 L232.022131,0.810103774 L232.825952,1.37867442 L233.461891,2.26296507 L233.803217,3.37663741 L236.726614,13.961403 L239.82446,2.9331852 L239.222066,1.98635915 L239.263126,1.18036734 L240.165808,0.964960394 L241.707831,1.16212446 L243.719236,1.08748098 L244.506383,1.07097304 L245.235723,1.75482304 L244.211251,2.74414491 L243.319797,3.53172214 L238.80055,20.1841895 L239.26324,20.8914271 L239.429662,21.8026012 L238.411552,22.6800759 L236.775609,23.1101711 L234.595874,23.604398 L233.304947,23.4626597 L233.057731,22.3726856 L233.473982,21.7390796 L233.473982,21.7390796 Z" id="VECTOR-LOGO"></path>
                            </g>
                        </g>
                    </g>
                </g>
            </g>
        </g>
    </g>
</svg>